<svg width="37" height="26" viewBox="0 0 37 26" fill="none" xmlns="http://www.w3.org/2000/svg">
<path d="M14.5755 21.0135L16.233 23.9143C16.5393 24.449 17.3828 24.7019 18.1186 24.4797C18.8558 24.2599 19.2053 23.6476 18.8999 23.1126L17.2428 20.2127L14.5755 21.0135Z" fill="#333333"/>
<path d="M13.1306 9.01047C13.1306 10.552 11.4078 11.8014 9.28374 11.8014C7.15738 11.8014 5.43422 10.552 5.43422 9.01047C5.43422 7.46925 7.15738 6.22053 9.28374 6.22053C11.4074 6.22053 13.1306 7.46925 13.1306 9.01047Z" fill="#333333"/>
<path d="M11.2061 9.01059C11.2061 9.78182 10.3454 10.4066 9.28331 10.4066C8.21996 10.4066 7.35709 9.78182 7.35709 9.01059C7.35709 8.24001 8.21996 7.61518 9.28331 7.61518C10.3454 7.61483 11.2061 8.24001 11.2061 9.01059Z" fill="#333333"/>
<path d="M6.58413 10.9999L1.31965 20.2132L0 24.3477L0.888816 24.6147L3.9873 21.0139L4.72448 19.7253C4.14934 18.7178 4.80828 17.5627 6.19746 17.1462L9.2501 11.8006C8.21181 11.7944 7.27248 11.4903 6.58413 10.9999Z" fill="#333333"/>
<path d="M11.9803 10.999C11.2916 11.49 10.3514 11.7941 9.31309 11.8001L13.8414 19.7234L16.5073 18.923L11.9803 10.999Z" fill="#333333"/>
<path d="M10.7256 4.82506V1.68516C10.7251 1.1065 10.077 0.63842 9.28246 0.63842C8.48526 0.63842 7.83929 1.10587 7.83881 1.68516L7.83929 4.82506H10.7256Z" fill="#333333"/>
<path d="M9.28374 6.22053C9.52965 6.22053 9.77047 6.2387 10.0038 6.27076V4.82535H8.56105V6.27076C8.79528 6.23838 9.03533 6.22053 9.28374 6.22053Z" fill="#333333"/>
<path d="M29.5854 25.2628H24.7849V0.131348H29.5862C30.647 0.131348 31.5064 0.756816 31.5064 1.52805V23.8673C31.5059 24.6386 30.6461 25.2628 29.5854 25.2628Z" fill="#333333"/>
<path d="M35.0798 0.131348C34.55 0.131348 34.1193 0.444553 34.1193 0.830325V15.4903L35.5594 19.6788L37 15.4903V0.829698C37 0.444556 36.5696 0.131662 36.0395 0.131662L35.0798 0.131348Z" fill="#333333"/>
</svg>
